<mxfile host="app.diagrams.net" modified="2023-12-11T04:28:17.626Z" agent="Mozilla/5.0 (Windows NT 10.0; Win64; x64) AppleWebKit/537.36 (KHTML, like Gecko) Chrome/119.0.0.0 Safari/537.36 Edg/119.0.0.0" etag="lwLXOa3ZQyuiAqscmIZK" version="21.3.2" type="device">
  <diagram name="Page-1" id="kWjsP_20bg0NaalNON8h">
    <mxGraphModel dx="1726" dy="654" grid="0" gridSize="10" guides="1" tooltips="1" connect="1" arrows="1" fold="1" page="0" pageScale="1" pageWidth="850" pageHeight="1100" math="0" shadow="1">
      <root>
        <mxCell id="0" />
        <mxCell id="1" parent="0" />
        <mxCell id="BRY-8e5FaYYJlyGmiAQM-1" value="AWS Cloud" style="points=[[0,0],[0.25,0],[0.5,0],[0.75,0],[1,0],[1,0.25],[1,0.5],[1,0.75],[1,1],[0.75,1],[0.5,1],[0.25,1],[0,1],[0,0.75],[0,0.5],[0,0.25]];outlineConnect=0;gradientColor=none;html=1;whiteSpace=wrap;fontSize=12;fontStyle=0;container=1;pointerEvents=0;collapsible=0;recursiveResize=0;shape=mxgraph.aws4.group;grIcon=mxgraph.aws4.group_aws_cloud;strokeColor=#232F3E;fillColor=none;verticalAlign=top;align=left;spacingLeft=30;fontColor=#FFFFFF;dashed=0;rounded=1;" vertex="1" parent="1">
          <mxGeometry x="30" y="80" width="810" height="450" as="geometry" />
        </mxCell>
        <mxCell id="BRY-8e5FaYYJlyGmiAQM-3" value="&lt;font color=&quot;#00ff00&quot;&gt;Virtual Private Cloud&lt;/font&gt;" style="points=[[0,0],[0.25,0],[0.5,0],[0.75,0],[1,0],[1,0.25],[1,0.5],[1,0.75],[1,1],[0.75,1],[0.5,1],[0.25,1],[0,1],[0,0.75],[0,0.5],[0,0.25]];outlineConnect=0;gradientColor=none;html=1;whiteSpace=wrap;fontSize=12;fontStyle=0;container=1;pointerEvents=0;collapsible=0;recursiveResize=0;shape=mxgraph.aws4.group;grIcon=mxgraph.aws4.group_vpc;strokeColor=#248814;fillColor=none;verticalAlign=top;align=left;spacingLeft=30;fontColor=#FFFFFF;dashed=0;rounded=1;" vertex="1" parent="BRY-8e5FaYYJlyGmiAQM-1">
          <mxGeometry x="106" y="34" width="535" height="347" as="geometry" />
        </mxCell>
        <mxCell id="BRY-8e5FaYYJlyGmiAQM-27" value="app" style="edgeStyle=orthogonalEdgeStyle;rounded=1;orthogonalLoop=1;jettySize=auto;html=1;curved=1;" edge="1" parent="BRY-8e5FaYYJlyGmiAQM-3" source="BRY-8e5FaYYJlyGmiAQM-10" target="BRY-8e5FaYYJlyGmiAQM-8">
          <mxGeometry x="-0.0075" y="-9" relative="1" as="geometry">
            <Array as="points">
              <mxPoint x="81" y="155" />
              <mxPoint x="81" y="112" />
            </Array>
            <mxPoint as="offset" />
          </mxGeometry>
        </mxCell>
        <mxCell id="BRY-8e5FaYYJlyGmiAQM-28" value="API" style="rounded=1;orthogonalLoop=1;jettySize=auto;html=1;edgeStyle=orthogonalEdgeStyle;curved=1;" edge="1" parent="BRY-8e5FaYYJlyGmiAQM-3" source="BRY-8e5FaYYJlyGmiAQM-10" target="BRY-8e5FaYYJlyGmiAQM-7">
          <mxGeometry relative="1" as="geometry" />
        </mxCell>
        <mxCell id="BRY-8e5FaYYJlyGmiAQM-10" value="Load Balancer" style="outlineConnect=0;fontColor=#FFFFFF;gradientColor=none;fillColor=#4D27AA;strokeColor=none;dashed=0;verticalLabelPosition=bottom;verticalAlign=top;align=center;html=1;fontSize=12;fontStyle=0;aspect=fixed;pointerEvents=1;shape=mxgraph.aws4.application_load_balancer;rounded=1;" vertex="1" parent="BRY-8e5FaYYJlyGmiAQM-3">
          <mxGeometry x="25" y="131" width="49" height="49" as="geometry" />
        </mxCell>
        <mxCell id="BRY-8e5FaYYJlyGmiAQM-17" value="ECS Cluster Container" style="points=[[0,0],[0.25,0],[0.5,0],[0.75,0],[1,0],[1,0.25],[1,0.5],[1,0.75],[1,1],[0.75,1],[0.5,1],[0.25,1],[0,1],[0,0.75],[0,0.5],[0,0.25]];outlineConnect=0;gradientColor=none;html=1;whiteSpace=wrap;fontSize=12;fontStyle=0;container=1;pointerEvents=0;collapsible=0;recursiveResize=0;shape=mxgraph.aws4.group;grIcon=mxgraph.aws4.group_elastic_beanstalk;strokeColor=#D86613;fillColor=none;verticalAlign=top;align=left;spacingLeft=30;fontColor=#D86613;dashed=0;rounded=1;" vertex="1" parent="BRY-8e5FaYYJlyGmiAQM-3">
          <mxGeometry x="86" y="20" width="355" height="277" as="geometry" />
        </mxCell>
        <mxCell id="BRY-8e5FaYYJlyGmiAQM-6" value="&lt;font color=&quot;#cc6600&quot;&gt;ECS EC2 Container&lt;/font&gt;" style="points=[[0,0],[0.25,0],[0.5,0],[0.75,0],[1,0],[1,0.25],[1,0.5],[1,0.75],[1,1],[0.75,1],[0.5,1],[0.25,1],[0,1],[0,0.75],[0,0.5],[0,0.25]];outlineConnect=0;gradientColor=none;html=1;whiteSpace=wrap;fontSize=12;fontStyle=0;container=1;pointerEvents=0;collapsible=0;recursiveResize=0;shape=mxgraph.aws4.group;grIcon=mxgraph.aws4.group_elastic_beanstalk;strokeColor=#D86613;fillColor=none;verticalAlign=top;align=left;spacingLeft=30;fontColor=#FFFFFF;dashed=0;rounded=1;" vertex="1" parent="BRY-8e5FaYYJlyGmiAQM-17">
          <mxGeometry x="25" y="42" width="310" height="185" as="geometry" />
        </mxCell>
        <mxCell id="BRY-8e5FaYYJlyGmiAQM-7" value="Backend" style="outlineConnect=0;fontColor=#FFFFFF;gradientColor=none;fillColor=#D45B07;strokeColor=none;dashed=0;verticalLabelPosition=middle;verticalAlign=middle;align=left;html=1;fontSize=12;fontStyle=0;aspect=fixed;pointerEvents=1;shape=mxgraph.aws4.container_1;labelPosition=right;rounded=1;" vertex="1" parent="BRY-8e5FaYYJlyGmiAQM-6">
          <mxGeometry x="126" y="112.5" width="48" height="31" as="geometry" />
        </mxCell>
        <mxCell id="BRY-8e5FaYYJlyGmiAQM-9" value="Rest API" style="edgeStyle=orthogonalEdgeStyle;rounded=1;orthogonalLoop=1;jettySize=auto;html=1;startArrow=classic;startFill=1;fontColor=#FFFFFF;" edge="1" parent="BRY-8e5FaYYJlyGmiAQM-6" source="BRY-8e5FaYYJlyGmiAQM-8" target="BRY-8e5FaYYJlyGmiAQM-7">
          <mxGeometry relative="1" as="geometry" />
        </mxCell>
        <mxCell id="BRY-8e5FaYYJlyGmiAQM-8" value="Frontend" style="outlineConnect=0;fontColor=#FFFFFF;gradientColor=none;fillColor=#D45B07;strokeColor=none;dashed=0;verticalLabelPosition=middle;verticalAlign=middle;align=left;html=1;fontSize=12;fontStyle=0;aspect=fixed;pointerEvents=1;shape=mxgraph.aws4.container_1;labelPosition=right;rounded=1;" vertex="1" parent="BRY-8e5FaYYJlyGmiAQM-6">
          <mxGeometry x="126" y="32.5" width="48" height="31" as="geometry" />
        </mxCell>
        <mxCell id="BRY-8e5FaYYJlyGmiAQM-33" value="Primary Queries" style="edgeStyle=orthogonalEdgeStyle;rounded=1;orthogonalLoop=1;jettySize=auto;html=1;startArrow=classic;startFill=1;" edge="1" parent="BRY-8e5FaYYJlyGmiAQM-3" source="BRY-8e5FaYYJlyGmiAQM-15" target="BRY-8e5FaYYJlyGmiAQM-7">
          <mxGeometry relative="1" as="geometry">
            <Array as="points">
              <mxPoint x="370" y="272" />
              <mxPoint x="370" y="180" />
            </Array>
          </mxGeometry>
        </mxCell>
        <mxCell id="BRY-8e5FaYYJlyGmiAQM-15" value="Amazon&lt;br&gt;RDS" style="points=[[0,0,0],[0.25,0,0],[0.5,0,0],[0.75,0,0],[1,0,0],[0,1,0],[0.25,1,0],[0.5,1,0],[0.75,1,0],[1,1,0],[0,0.25,0],[0,0.5,0],[0,0.75,0],[1,0.25,0],[1,0.5,0],[1,0.75,0]];outlineConnect=0;fontColor=#FFFFFF;gradientColor=#4D72F3;gradientDirection=north;fillColor=#3334B9;strokeColor=#ffffff;dashed=0;verticalLabelPosition=bottom;verticalAlign=top;align=center;html=1;fontSize=12;fontStyle=0;aspect=fixed;shape=mxgraph.aws4.resourceIcon;resIcon=mxgraph.aws4.rds;rounded=1;" vertex="1" parent="BRY-8e5FaYYJlyGmiAQM-3">
          <mxGeometry x="470" y="247" width="50" height="50" as="geometry" />
        </mxCell>
        <mxCell id="BRY-8e5FaYYJlyGmiAQM-34" value="" style="ellipse;whiteSpace=wrap;html=1;aspect=fixed;fillColor=#e3c800;fontColor=#000000;strokeColor=#B09500;rounded=1;" vertex="1" parent="BRY-8e5FaYYJlyGmiAQM-3">
          <mxGeometry x="485" y="170" width="20" height="20" as="geometry" />
        </mxCell>
        <mxCell id="BRY-8e5FaYYJlyGmiAQM-35" style="edgeStyle=orthogonalEdgeStyle;rounded=1;orthogonalLoop=1;jettySize=auto;html=1;entryX=0;entryY=0.5;entryDx=0;entryDy=0;startArrow=classic;startFill=1;curved=1;" edge="1" parent="BRY-8e5FaYYJlyGmiAQM-3" source="BRY-8e5FaYYJlyGmiAQM-7" target="BRY-8e5FaYYJlyGmiAQM-34">
          <mxGeometry relative="1" as="geometry">
            <Array as="points">
              <mxPoint x="275" y="140" />
              <mxPoint x="470" y="140" />
              <mxPoint x="470" y="180" />
            </Array>
          </mxGeometry>
        </mxCell>
        <mxCell id="BRY-8e5FaYYJlyGmiAQM-37" value="Direct Messaging Queries" style="edgeLabel;html=1;align=center;verticalAlign=middle;resizable=0;points=[];rounded=1;" vertex="1" connectable="0" parent="BRY-8e5FaYYJlyGmiAQM-35">
          <mxGeometry x="0.3409" y="3" relative="1" as="geometry">
            <mxPoint x="-61" y="5" as="offset" />
          </mxGeometry>
        </mxCell>
        <mxCell id="BRY-8e5FaYYJlyGmiAQM-20" style="edgeStyle=orthogonalEdgeStyle;rounded=1;orthogonalLoop=1;jettySize=auto;html=1;exitX=1;exitY=0.5;exitDx=0;exitDy=0;exitPerimeter=0;entryX=1;entryY=0.5;entryDx=0;entryDy=0;entryPerimeter=0;startArrow=classic;startFill=1;" edge="1" parent="BRY-8e5FaYYJlyGmiAQM-1" source="BRY-8e5FaYYJlyGmiAQM-13" target="BRY-8e5FaYYJlyGmiAQM-14">
          <mxGeometry relative="1" as="geometry" />
        </mxCell>
        <mxCell id="BRY-8e5FaYYJlyGmiAQM-13" value="AWS AppSync" style="points=[[0,0,0],[0.25,0,0],[0.5,0,0],[0.75,0,0],[1,0,0],[0,1,0],[0.25,1,0],[0.5,1,0],[0.75,1,0],[1,1,0],[0,0.25,0],[0,0.5,0],[0,0.75,0],[1,0.25,0],[1,0.5,0],[1,0.75,0]];outlineConnect=0;fontColor=#f7f7f7;gradientColor=#FF4F8B;gradientDirection=north;fillColor=#BC1356;strokeColor=#ffffff;dashed=0;verticalLabelPosition=bottom;verticalAlign=top;align=center;html=1;fontSize=12;fontStyle=0;aspect=fixed;shape=mxgraph.aws4.resourceIcon;resIcon=mxgraph.aws4.appsync;rounded=1;" vertex="1" parent="BRY-8e5FaYYJlyGmiAQM-1">
          <mxGeometry x="670" y="20" width="50" height="50" as="geometry" />
        </mxCell>
        <mxCell id="BRY-8e5FaYYJlyGmiAQM-14" value="Amazon&lt;br&gt;DynamoDB" style="points=[[0,0,0],[0.25,0,0],[0.5,0,0],[0.75,0,0],[1,0,0],[0,1,0],[0.25,1,0],[0.5,1,0],[0.75,1,0],[1,1,0],[0,0.25,0],[0,0.5,0],[0,0.75,0],[1,0.25,0],[1,0.5,0],[1,0.75,0]];outlineConnect=0;fontColor=#FFFFFF;gradientColor=#4D72F3;gradientDirection=north;fillColor=#3334B9;strokeColor=#ffffff;dashed=0;verticalLabelPosition=bottom;verticalAlign=top;align=center;html=1;fontSize=12;fontStyle=0;aspect=fixed;shape=mxgraph.aws4.resourceIcon;resIcon=mxgraph.aws4.dynamodb;rounded=1;" vertex="1" parent="BRY-8e5FaYYJlyGmiAQM-1">
          <mxGeometry x="660" y="160" width="50" height="50" as="geometry" />
        </mxCell>
        <mxCell id="BRY-8e5FaYYJlyGmiAQM-26" style="edgeStyle=orthogonalEdgeStyle;rounded=1;orthogonalLoop=1;jettySize=auto;html=1;entryX=1;entryY=0.25;entryDx=0;entryDy=0;entryPerimeter=0;startArrow=classic;startFill=1;exitX=1;exitY=0.5;exitDx=0;exitDy=0;exitPerimeter=0;" edge="1" parent="BRY-8e5FaYYJlyGmiAQM-1" source="BRY-8e5FaYYJlyGmiAQM-15" target="BRY-8e5FaYYJlyGmiAQM-13">
          <mxGeometry relative="1" as="geometry">
            <Array as="points">
              <mxPoint x="760" y="302" />
              <mxPoint x="760" y="33" />
            </Array>
          </mxGeometry>
        </mxCell>
        <mxCell id="BRY-8e5FaYYJlyGmiAQM-11" value="DNS" style="points=[[0,0,0],[0.25,0,0],[0.5,0,0],[0.75,0,0],[1,0,0],[0,1,0],[0.25,1,0],[0.5,1,0],[0.75,1,0],[1,1,0],[0,0.25,0],[0,0.5,0],[0,0.75,0],[1,0.25,0],[1,0.5,0],[1,0.75,0]];outlineConnect=0;fontColor=#FFFFFF;gradientColor=#945DF2;gradientDirection=north;fillColor=#5A30B5;strokeColor=#ffffff;dashed=0;verticalLabelPosition=bottom;verticalAlign=top;align=center;html=1;fontSize=12;fontStyle=0;aspect=fixed;shape=mxgraph.aws4.resourceIcon;resIcon=mxgraph.aws4.route_53;rounded=1;" vertex="1" parent="BRY-8e5FaYYJlyGmiAQM-1">
          <mxGeometry x="20" y="155" width="59" height="59" as="geometry" />
        </mxCell>
        <mxCell id="BRY-8e5FaYYJlyGmiAQM-23" style="edgeStyle=orthogonalEdgeStyle;rounded=1;orthogonalLoop=1;jettySize=auto;html=1;" edge="1" parent="BRY-8e5FaYYJlyGmiAQM-1" source="BRY-8e5FaYYJlyGmiAQM-11" target="BRY-8e5FaYYJlyGmiAQM-10">
          <mxGeometry relative="1" as="geometry" />
        </mxCell>
        <mxCell id="BRY-8e5FaYYJlyGmiAQM-12" value="Authentication" style="points=[[0,0,0],[0.25,0,0],[0.5,0,0],[0.75,0,0],[1,0,0],[0,1,0],[0.25,1,0],[0.5,1,0],[0.75,1,0],[1,1,0],[0,0.25,0],[0,0.5,0],[0,0.75,0],[1,0.25,0],[1,0.5,0],[1,0.75,0]];outlineConnect=0;fontColor=#FFFFFF;gradientColor=#F54749;gradientDirection=north;fillColor=#C7131F;strokeColor=#ffffff;dashed=0;verticalLabelPosition=bottom;verticalAlign=top;align=center;html=1;fontSize=12;fontStyle=0;aspect=fixed;shape=mxgraph.aws4.resourceIcon;resIcon=mxgraph.aws4.cognito;rounded=1;" vertex="1" parent="BRY-8e5FaYYJlyGmiAQM-1">
          <mxGeometry x="29" y="270" width="50" height="50" as="geometry" />
        </mxCell>
        <mxCell id="BRY-8e5FaYYJlyGmiAQM-24" style="edgeStyle=orthogonalEdgeStyle;rounded=1;orthogonalLoop=1;jettySize=auto;html=1;startArrow=classic;startFill=1;" edge="1" parent="BRY-8e5FaYYJlyGmiAQM-1" source="BRY-8e5FaYYJlyGmiAQM-12" target="BRY-8e5FaYYJlyGmiAQM-7">
          <mxGeometry relative="1" as="geometry">
            <Array as="points">
              <mxPoint x="370" y="305" />
            </Array>
          </mxGeometry>
        </mxCell>
        <mxCell id="BRY-8e5FaYYJlyGmiAQM-32" value="Primary or DM Queries" style="rounded=1;orthogonalLoop=1;jettySize=auto;html=1;entryX=0;entryY=0.5;entryDx=0;entryDy=0;entryPerimeter=0;startArrow=classic;startFill=1;" edge="1" parent="BRY-8e5FaYYJlyGmiAQM-1" source="BRY-8e5FaYYJlyGmiAQM-8" target="BRY-8e5FaYYJlyGmiAQM-13">
          <mxGeometry x="-0.4501" y="-1" relative="1" as="geometry">
            <mxPoint as="offset" />
          </mxGeometry>
        </mxCell>
        <mxCell id="BRY-8e5FaYYJlyGmiAQM-36" style="edgeStyle=orthogonalEdgeStyle;rounded=1;orthogonalLoop=1;jettySize=auto;html=1;exitX=1;exitY=0.5;exitDx=0;exitDy=0;" edge="1" parent="BRY-8e5FaYYJlyGmiAQM-1" source="BRY-8e5FaYYJlyGmiAQM-34" target="BRY-8e5FaYYJlyGmiAQM-14">
          <mxGeometry relative="1" as="geometry" />
        </mxCell>
        <mxCell id="BRY-8e5FaYYJlyGmiAQM-16" value="Serverless&lt;br&gt;Caching" style="outlineConnect=0;fontColor=#F0F0F0;gradientColor=none;fillColor=#2E27AD;strokeColor=none;dashed=0;verticalLabelPosition=bottom;verticalAlign=top;align=center;html=1;fontSize=12;fontStyle=0;aspect=fixed;pointerEvents=1;shape=mxgraph.aws4.cache_node;rounded=1;" vertex="1" parent="1">
          <mxGeometry x="880" y="390" width="40" height="40" as="geometry" />
        </mxCell>
        <mxCell id="BRY-8e5FaYYJlyGmiAQM-30" style="edgeStyle=orthogonalEdgeStyle;rounded=1;orthogonalLoop=1;jettySize=auto;html=1;entryX=0;entryY=0.5;entryDx=0;entryDy=0;entryPerimeter=0;" edge="1" parent="1" source="BRY-8e5FaYYJlyGmiAQM-29" target="BRY-8e5FaYYJlyGmiAQM-11">
          <mxGeometry relative="1" as="geometry" />
        </mxCell>
        <mxCell id="BRY-8e5FaYYJlyGmiAQM-31" style="edgeStyle=orthogonalEdgeStyle;rounded=1;orthogonalLoop=1;jettySize=auto;html=1;startArrow=classic;startFill=1;" edge="1" parent="1" source="BRY-8e5FaYYJlyGmiAQM-29" target="BRY-8e5FaYYJlyGmiAQM-12">
          <mxGeometry relative="1" as="geometry">
            <Array as="points">
              <mxPoint x="-67" y="375" />
            </Array>
          </mxGeometry>
        </mxCell>
        <mxCell id="BRY-8e5FaYYJlyGmiAQM-29" value="Users" style="outlineConnect=0;dashed=0;verticalLabelPosition=top;verticalAlign=bottom;align=center;html=1;shape=mxgraph.aws3.users;fillColor=#D2D3D3;gradientColor=none;labelPosition=center;rounded=1;" vertex="1" parent="1">
          <mxGeometry x="-100" y="220" width="66" height="63" as="geometry" />
        </mxCell>
        <mxCell id="BRY-8e5FaYYJlyGmiAQM-38" style="edgeStyle=orthogonalEdgeStyle;rounded=1;orthogonalLoop=1;jettySize=auto;html=1;exitX=1;exitY=1;exitDx=0;exitDy=0;curved=1;targetPerimeterSpacing=1;startArrow=classic;startFill=1;" edge="1" parent="1" source="BRY-8e5FaYYJlyGmiAQM-34">
          <mxGeometry relative="1" as="geometry">
            <mxPoint x="880" y="410" as="targetPoint" />
            <Array as="points">
              <mxPoint x="642" y="360" />
              <mxPoint x="860" y="360" />
              <mxPoint x="860" y="410" />
            </Array>
          </mxGeometry>
        </mxCell>
      </root>
    </mxGraphModel>
  </diagram>
</mxfile>
